<svg width="500" height="77" viewBox="0 0 500 77" fill="none" xmlns="http://www.w3.org/2000/svg">
<rect width="500" height="77" rx="12.9649" fill="#1DD100"/>
<path d="M202.912 49.9649V26.6922H211.048C212.67 26.6922 214.007 26.9725 215.06 27.5331C216.113 28.0861 216.897 28.8323 217.412 29.7717C217.927 30.7036 218.185 31.7376 218.185 32.874C218.185 33.874 218.007 34.6998 217.651 35.3513C217.302 36.0028 216.84 36.518 216.264 36.8967C215.696 37.2755 215.079 37.5558 214.412 37.7376V37.9649C215.124 38.0104 215.84 38.2604 216.56 38.7149C217.279 39.1695 217.882 39.821 218.366 40.6695C218.851 41.5179 219.094 42.5558 219.094 43.7831C219.094 44.9498 218.829 45.999 218.298 46.9308C217.768 47.8626 216.931 48.6013 215.787 49.1467C214.643 49.6922 213.154 49.9649 211.321 49.9649H202.912ZM205.73 47.4649H211.321C213.162 47.4649 214.469 47.1089 215.241 46.3967C216.022 45.677 216.412 44.8058 216.412 43.7831C216.412 42.9952 216.211 42.268 215.81 41.6013C215.408 40.927 214.836 40.3892 214.094 39.9876C213.351 39.5786 212.473 39.374 211.457 39.374H205.73V47.4649ZM205.73 36.9195H210.957C211.806 36.9195 212.571 36.7528 213.253 36.4195C213.942 36.0861 214.488 35.6164 214.889 35.0104C215.298 34.4043 215.503 33.6922 215.503 32.874C215.503 31.8513 215.147 30.9839 214.435 30.2717C213.723 29.552 212.594 29.1922 211.048 29.1922H205.73V36.9195ZM230.452 50.3286C228.876 50.3286 227.493 49.9536 226.304 49.2036C225.122 48.4536 224.198 47.4043 223.531 46.0558C222.872 44.7073 222.543 43.1316 222.543 41.3286C222.543 39.5104 222.872 37.9233 223.531 36.5672C224.198 35.2111 225.122 34.1581 226.304 33.4081C227.493 32.6581 228.876 32.2831 230.452 32.2831C232.027 32.2831 233.406 32.6581 234.588 33.4081C235.777 34.1581 236.702 35.2111 237.361 36.5672C238.027 37.9233 238.361 39.5104 238.361 41.3286C238.361 43.1316 238.027 44.7073 237.361 46.0558C236.702 47.4043 235.777 48.4536 234.588 49.2036C233.406 49.9536 232.027 50.3286 230.452 50.3286ZM230.452 47.9195C231.649 47.9195 232.634 47.6126 233.406 46.999C234.179 46.3854 234.751 45.5786 235.122 44.5786C235.493 43.5786 235.679 42.4952 235.679 41.3286C235.679 40.1619 235.493 39.0748 235.122 38.0672C234.751 37.0596 234.179 36.2452 233.406 35.624C232.634 35.0028 231.649 34.6922 230.452 34.6922C229.255 34.6922 228.27 35.0028 227.497 35.624C226.724 36.2452 226.152 37.0596 225.781 38.0672C225.41 39.0748 225.224 40.1619 225.224 41.3286C225.224 42.4952 225.41 43.5786 225.781 44.5786C226.152 45.5786 226.724 46.3854 227.497 46.999C228.27 47.6126 229.255 47.9195 230.452 47.9195ZM245.136 46.0104L253.545 32.5104H256.636V49.9649H253.955V36.4649L245.591 49.9649H242.455V32.5104H245.136V46.0104ZM251.773 26.6922H254.273C254.273 27.9195 253.848 28.9233 253 29.7036C252.152 30.4839 251 30.874 249.545 30.874C248.114 30.874 246.973 30.4839 246.125 29.7036C245.284 28.9233 244.864 27.9195 244.864 26.6922H247.364C247.364 27.2831 247.527 27.802 247.852 28.249C248.186 28.696 248.75 28.9195 249.545 28.9195C250.341 28.9195 250.909 28.696 251.25 28.249C251.598 27.802 251.773 27.2831 251.773 26.6922ZM259.173 35.0104V32.5104H273.355V35.0104H267.628V49.9649H264.946V35.0104H259.173ZM279.949 46.0104L288.358 32.5104H291.449V49.9649H288.767V36.4649L280.403 49.9649H277.267V32.5104H279.949V46.0104Z" fill="black"/>
</svg>
