<svg width="500" height="77" viewBox="0 0 500 77" fill="none" xmlns="http://www.w3.org/2000/svg">
<rect width="500" height="77" rx="12.9649" fill="#1DD100"/>
<path d="M96.5852 50.3182C95.0852 50.3182 93.7481 50.0606 92.5739 49.5455C91.4072 49.0303 90.4792 48.3144 89.7898 47.3977C89.108 46.4735 88.7367 45.4015 88.6761 44.1818H91.5398C91.6004 44.9318 91.858 45.5795 92.3125 46.125C92.767 46.6629 93.3617 47.0795 94.0966 47.375C94.8314 47.6705 95.6458 47.8182 96.5398 47.8182C97.5398 47.8182 98.4261 47.6439 99.1989 47.2955C99.9716 46.947 100.578 46.4621 101.017 45.8409C101.456 45.2197 101.676 44.5 101.676 43.6818C101.676 42.8258 101.464 42.072 101.04 41.4205C100.616 40.7614 99.9943 40.2462 99.1761 39.875C98.358 39.5038 97.358 39.3182 96.1761 39.3182H94.3125V36.8182H96.1761C97.1004 36.8182 97.911 36.6515 98.608 36.3182C99.3125 35.9848 99.8617 35.5152 100.256 34.9091C100.657 34.303 100.858 33.5909 100.858 32.7727C100.858 31.9848 100.684 31.2992 100.335 30.7159C99.9867 30.1326 99.4943 29.678 98.858 29.3523C98.2292 29.0265 97.4867 28.8636 96.6307 28.8636C95.8277 28.8636 95.0701 29.0114 94.358 29.3068C93.6534 29.5947 93.0777 30.0152 92.6307 30.5682C92.1837 31.1136 91.9413 31.7727 91.9034 32.5455H89.1761C89.2216 31.3258 89.589 30.2576 90.2784 29.3409C90.9678 28.4167 91.8693 27.697 92.983 27.1818C94.1042 26.6667 95.3352 26.4091 96.6761 26.4091C98.1155 26.4091 99.3504 26.7008 100.381 27.2841C101.411 27.8598 102.203 28.6212 102.756 29.5682C103.309 30.5152 103.585 31.5379 103.585 32.6364C103.585 33.947 103.241 35.0644 102.551 35.9886C101.869 36.9129 100.941 37.553 99.767 37.9091V38.0909C101.237 38.3333 102.384 38.9583 103.21 39.9659C104.036 40.9659 104.449 42.2045 104.449 43.6818C104.449 44.947 104.104 46.0833 103.415 47.0909C102.733 48.0909 101.801 48.8788 100.619 49.4545C99.4375 50.0303 98.0928 50.3182 96.5852 50.3182ZM114.278 50.4091C113.172 50.4091 112.169 50.2008 111.267 49.7841C110.366 49.3598 109.65 48.75 109.119 47.9545C108.589 47.1515 108.324 46.1818 108.324 45.0455C108.324 44.0455 108.521 43.2348 108.915 42.6136C109.309 41.9848 109.835 41.4924 110.494 41.1364C111.153 40.7803 111.881 40.5152 112.676 40.3409C113.479 40.1591 114.286 40.0152 115.097 39.9091C116.157 39.7727 117.017 39.6705 117.676 39.6023C118.343 39.5265 118.828 39.4015 119.131 39.2273C119.441 39.053 119.597 38.75 119.597 38.3182V38.2273C119.597 37.1061 119.29 36.2348 118.676 35.6136C118.07 34.9924 117.15 34.6818 115.915 34.6818C114.634 34.6818 113.631 34.9621 112.903 35.5227C112.176 36.0833 111.665 36.6818 111.369 37.3182L108.824 36.4091C109.278 35.3485 109.884 34.5227 110.642 33.9318C111.407 33.3333 112.241 32.9167 113.142 32.6818C114.051 32.4394 114.945 32.3182 115.824 32.3182C116.384 32.3182 117.028 32.3864 117.756 32.5227C118.491 32.6515 119.199 32.9205 119.881 33.3295C120.57 33.7386 121.142 34.3561 121.597 35.1818C122.051 36.0076 122.278 37.1136 122.278 38.5V50H119.597V47.6364H119.46C119.278 48.0152 118.975 48.4205 118.551 48.8523C118.127 49.2841 117.563 49.6515 116.858 49.9545C116.153 50.2576 115.294 50.4091 114.278 50.4091ZM114.688 48C115.748 48 116.642 47.7917 117.369 47.375C118.104 46.9583 118.657 46.4205 119.028 45.7614C119.407 45.1023 119.597 44.4091 119.597 43.6818V41.2273C119.483 41.3636 119.233 41.4886 118.847 41.6023C118.468 41.7083 118.028 41.803 117.528 41.8864C117.036 41.9621 116.555 42.0303 116.085 42.0909C115.623 42.1439 115.248 42.1894 114.96 42.2273C114.263 42.3182 113.612 42.4659 113.006 42.6705C112.407 42.8674 111.922 43.1667 111.551 43.5682C111.188 43.9621 111.006 44.5 111.006 45.1818C111.006 46.1136 111.35 46.8182 112.04 47.2955C112.737 47.7652 113.619 48 114.688 48ZM127.173 56.5455V32.5455H129.764V35.3182H130.082C130.279 35.0152 130.552 34.6288 130.901 34.1591C131.257 33.6818 131.764 33.2576 132.423 32.8864C133.09 32.5076 133.991 32.3182 135.128 32.3182C136.598 32.3182 137.893 32.6856 139.014 33.4205C140.135 34.1553 141.01 35.197 141.639 36.5455C142.268 37.8939 142.582 39.4848 142.582 41.3182C142.582 43.1667 142.268 44.7689 141.639 46.125C141.01 47.4735 140.139 48.5189 139.026 49.2614C137.912 49.9962 136.628 50.3636 135.173 50.3636C134.052 50.3636 133.154 50.178 132.48 49.8068C131.806 49.428 131.287 49 130.923 48.5227C130.56 48.0379 130.279 47.6364 130.082 47.3182H129.855V56.5455H127.173ZM129.81 41.2727C129.81 42.5909 130.003 43.7538 130.389 44.7614C130.776 45.7614 131.34 46.5455 132.082 47.1136C132.825 47.6742 133.734 47.9545 134.81 47.9545C135.931 47.9545 136.866 47.6591 137.616 47.0682C138.374 46.4697 138.942 45.6667 139.321 44.6591C139.707 43.6439 139.901 42.5152 139.901 41.2727C139.901 40.0455 139.711 38.9394 139.332 37.9545C138.961 36.9621 138.397 36.178 137.639 35.6023C136.889 35.0189 135.946 34.7273 134.81 34.7273C133.719 34.7273 132.802 35.0038 132.06 35.5568C131.317 36.1023 130.757 36.8674 130.378 37.8523C129.999 38.8295 129.81 39.9697 129.81 41.2727ZM153.991 50.3636C152.31 50.3636 150.859 49.9924 149.639 49.25C148.427 48.5 147.491 47.4545 146.832 46.1136C146.181 44.7652 145.855 43.197 145.855 41.4091C145.855 39.6212 146.181 38.0455 146.832 36.6818C147.491 35.3106 148.408 34.2424 149.582 33.4773C150.764 32.7045 152.143 32.3182 153.719 32.3182C154.628 32.3182 155.526 32.4697 156.412 32.7727C157.298 33.0758 158.105 33.5682 158.832 34.25C159.56 34.9242 160.139 35.8182 160.571 36.9318C161.003 38.0455 161.219 39.4167 161.219 41.0455V42.1818H147.764V39.8636H158.491C158.491 38.8788 158.295 38 157.901 37.2273C157.514 36.4545 156.961 35.8447 156.241 35.3977C155.529 34.9508 154.688 34.7273 153.719 34.7273C152.651 34.7273 151.726 34.9924 150.946 35.5227C150.173 36.0455 149.579 36.7273 149.162 37.5682C148.745 38.4091 148.537 39.3106 148.537 40.2727V41.8182C148.537 43.1364 148.764 44.2538 149.219 45.1705C149.681 46.0795 150.321 46.7727 151.139 47.25C151.957 47.7197 152.908 47.9545 153.991 47.9545C154.696 47.9545 155.332 47.8561 155.901 47.6591C156.476 47.4545 156.973 47.1515 157.389 46.75C157.806 46.3409 158.128 45.8333 158.355 45.2273L160.946 45.9545C160.673 46.8333 160.215 47.6061 159.571 48.2727C158.927 48.9318 158.132 49.447 157.185 49.8182C156.238 50.1818 155.173 50.3636 153.991 50.3636ZM176.071 32.5455V35.0455H167.98V50H165.298V32.5455H176.071ZM182.668 46.0455L191.077 32.5455H194.168V50H191.486V36.5L183.122 50H179.986V32.5455H182.668V46.0455ZM206.17 50.3636C204.534 50.3636 203.125 49.9773 201.943 49.2045C200.761 48.4318 199.852 47.3674 199.216 46.0114C198.58 44.6553 198.261 43.1061 198.261 41.3636C198.261 39.5909 198.587 38.0265 199.239 36.6705C199.898 35.3068 200.814 34.2424 201.989 33.4773C203.17 32.7045 204.549 32.3182 206.125 32.3182C207.352 32.3182 208.458 32.5455 209.443 33C210.428 33.4545 211.235 34.0909 211.864 34.9091C212.492 35.7273 212.883 36.6818 213.034 37.7727H210.352C210.148 36.9773 209.693 36.2727 208.989 35.6591C208.292 35.0379 207.352 34.7273 206.17 34.7273C205.125 34.7273 204.208 35 203.42 35.5455C202.64 36.0833 202.03 36.8447 201.591 37.8295C201.159 38.8068 200.943 39.9545 200.943 41.2727C200.943 42.6212 201.155 43.7955 201.58 44.7955C202.011 45.7955 202.617 46.572 203.398 47.125C204.186 47.678 205.11 47.9545 206.17 47.9545C206.867 47.9545 207.5 47.8333 208.068 47.5909C208.636 47.3485 209.117 47 209.511 46.5455C209.905 46.0909 210.186 45.5455 210.352 44.9091H213.034C212.883 45.9394 212.508 46.8674 211.909 47.6932C211.318 48.5114 210.534 49.1629 209.557 49.6477C208.587 50.125 207.458 50.3636 206.17 50.3636ZM215.58 35.0455V32.5455H229.761V35.0455H224.034V50H221.352V35.0455H215.58ZM233.673 56.5455V32.5455H236.264V35.3182H236.582C236.779 35.0152 237.052 34.6288 237.401 34.1591C237.757 33.6818 238.264 33.2576 238.923 32.8864C239.59 32.5076 240.491 32.3182 241.628 32.3182C243.098 32.3182 244.393 32.6856 245.514 33.4205C246.635 34.1553 247.51 35.197 248.139 36.5455C248.768 37.8939 249.082 39.4848 249.082 41.3182C249.082 43.1667 248.768 44.7689 248.139 46.125C247.51 47.4735 246.639 48.5189 245.526 49.2614C244.412 49.9962 243.128 50.3636 241.673 50.3636C240.552 50.3636 239.654 50.178 238.98 49.8068C238.306 49.428 237.787 49 237.423 48.5227C237.06 48.0379 236.779 47.6364 236.582 47.3182H236.355V56.5455H233.673ZM236.31 41.2727C236.31 42.5909 236.503 43.7538 236.889 44.7614C237.276 45.7614 237.84 46.5455 238.582 47.1136C239.325 47.6742 240.234 47.9545 241.31 47.9545C242.431 47.9545 243.366 47.6591 244.116 47.0682C244.874 46.4697 245.442 45.6667 245.821 44.6591C246.207 43.6439 246.401 42.5152 246.401 41.2727C246.401 40.0455 246.211 38.9394 245.832 37.9545C245.461 36.9621 244.897 36.178 244.139 35.6023C243.389 35.0189 242.446 34.7273 241.31 34.7273C240.219 34.7273 239.302 35.0038 238.56 35.5568C237.817 36.1023 237.257 36.8674 236.878 37.8523C236.499 38.8295 236.31 39.9697 236.31 41.2727ZM255.855 46.0455L264.264 32.5455H267.355V50H264.673V36.5L256.31 50H253.173V32.5455H255.855V46.0455ZM272.267 56.5455V32.5455H274.858V35.3182H275.176C275.373 35.0152 275.646 34.6288 275.994 34.1591C276.35 33.6818 276.858 33.2576 277.517 32.8864C278.184 32.5076 279.085 32.3182 280.222 32.3182C281.691 32.3182 282.987 32.6856 284.108 33.4205C285.229 34.1553 286.104 35.197 286.733 36.5455C287.362 37.8939 287.676 39.4848 287.676 41.3182C287.676 43.1667 287.362 44.7689 286.733 46.125C286.104 47.4735 285.233 48.5189 284.119 49.2614C283.006 49.9962 281.722 50.3636 280.267 50.3636C279.146 50.3636 278.248 50.178 277.574 49.8068C276.9 49.428 276.381 49 276.017 48.5227C275.653 48.0379 275.373 47.6364 275.176 47.3182H274.949V56.5455H272.267ZM274.903 41.2727C274.903 42.5909 275.097 43.7538 275.483 44.7614C275.869 45.7614 276.434 46.5455 277.176 47.1136C277.919 47.6742 278.828 47.9545 279.903 47.9545C281.025 47.9545 281.96 47.6591 282.71 47.0682C283.468 46.4697 284.036 45.6667 284.415 44.6591C284.801 43.6439 284.994 42.5152 284.994 41.2727C284.994 40.0455 284.805 38.9394 284.426 37.9545C284.055 36.9621 283.491 36.178 282.733 35.6023C281.983 35.0189 281.04 34.7273 279.903 34.7273C278.813 34.7273 277.896 35.0038 277.153 35.5568C276.411 36.1023 275.85 36.8674 275.472 37.8523C275.093 38.8295 274.903 39.9697 274.903 41.2727ZM298.858 50.3636C297.282 50.3636 295.9 49.9886 294.71 49.2386C293.528 48.4886 292.604 47.4394 291.938 46.0909C291.278 44.7424 290.949 43.1667 290.949 41.3636C290.949 39.5455 291.278 37.9583 291.938 36.6023C292.604 35.2462 293.528 34.1932 294.71 33.4432C295.9 32.6932 297.282 32.3182 298.858 32.3182C300.434 32.3182 301.813 32.6932 302.994 33.4432C304.184 34.1932 305.108 35.2462 305.767 36.6023C306.434 37.9583 306.767 39.5455 306.767 41.3636C306.767 43.1667 306.434 44.7424 305.767 46.0909C305.108 47.4394 304.184 48.4886 302.994 49.2386C301.813 49.9886 300.434 50.3636 298.858 50.3636ZM298.858 47.9545C300.055 47.9545 301.04 47.6477 301.812 47.0341C302.585 46.4205 303.157 45.6136 303.528 44.6136C303.9 43.6136 304.085 42.5303 304.085 41.3636C304.085 40.197 303.9 39.1098 303.528 38.1023C303.157 37.0947 302.585 36.2803 301.812 35.6591C301.04 35.0379 300.055 34.7273 298.858 34.7273C297.661 34.7273 296.676 35.0379 295.903 35.6591C295.131 36.2803 294.559 37.0947 294.188 38.1023C293.816 39.1098 293.631 40.197 293.631 41.3636C293.631 42.5303 293.816 43.6136 294.188 44.6136C294.559 45.6136 295.131 46.4205 295.903 47.0341C296.676 47.6477 297.661 47.9545 298.858 47.9545ZM310.861 50V32.5455H317.997C319.876 32.5455 321.368 32.9697 322.474 33.8182C323.58 34.6667 324.134 35.7879 324.134 37.1818C324.134 38.2424 323.819 39.0644 323.19 39.6477C322.562 40.2235 321.755 40.6136 320.77 40.8182C321.414 40.9091 322.039 41.1364 322.645 41.5C323.259 41.8636 323.766 42.3636 324.168 43C324.569 43.6288 324.77 44.4015 324.77 45.3182C324.77 46.2121 324.543 47.0114 324.088 47.7159C323.634 48.4205 322.982 48.9773 322.134 49.3864C321.285 49.7955 320.27 50 319.088 50H310.861ZM313.406 47.5455H319.088C320.012 47.5455 320.736 47.3258 321.259 46.8864C321.781 46.447 322.043 45.8485 322.043 45.0909C322.043 44.1894 321.781 43.4811 321.259 42.9659C320.736 42.4432 320.012 42.1818 319.088 42.1818H313.406V47.5455ZM313.406 39.8636H317.997C318.717 39.8636 319.334 39.7652 319.849 39.5682C320.365 39.3636 320.759 39.0758 321.031 38.7045C321.312 38.3258 321.452 37.8788 321.452 37.3636C321.452 36.6288 321.145 36.053 320.531 35.6364C319.918 35.2121 319.073 35 317.997 35H313.406V39.8636ZM333.966 50.4091C332.86 50.4091 331.856 50.2008 330.955 49.7841C330.053 49.3598 329.337 48.75 328.807 47.9545C328.277 47.1515 328.011 46.1818 328.011 45.0455C328.011 44.0455 328.208 43.2348 328.602 42.6136C328.996 41.9848 329.523 41.4924 330.182 41.1364C330.841 40.7803 331.568 40.5152 332.364 40.3409C333.167 40.1591 333.973 40.0152 334.784 39.9091C335.845 39.7727 336.705 39.6705 337.364 39.6023C338.03 39.5265 338.515 39.4015 338.818 39.2273C339.129 39.053 339.284 38.75 339.284 38.3182V38.2273C339.284 37.1061 338.977 36.2348 338.364 35.6136C337.758 34.9924 336.837 34.6818 335.602 34.6818C334.322 34.6818 333.318 34.9621 332.591 35.5227C331.864 36.0833 331.352 36.6818 331.057 37.3182L328.511 36.4091C328.966 35.3485 329.572 34.5227 330.33 33.9318C331.095 33.3333 331.928 32.9167 332.83 32.6818C333.739 32.4394 334.633 32.3182 335.511 32.3182C336.072 32.3182 336.716 32.3864 337.443 32.5227C338.178 32.6515 338.886 32.9205 339.568 33.3295C340.258 33.7386 340.83 34.3561 341.284 35.1818C341.739 36.0076 341.966 37.1136 341.966 38.5V50H339.284V47.6364H339.148C338.966 48.0152 338.663 48.4205 338.239 48.8523C337.814 49.2841 337.25 49.6515 336.545 49.9545C335.841 50.2576 334.981 50.4091 333.966 50.4091ZM334.375 48C335.436 48 336.33 47.7917 337.057 47.375C337.792 46.9583 338.345 46.4205 338.716 45.7614C339.095 45.1023 339.284 44.4091 339.284 43.6818V41.2273C339.17 41.3636 338.92 41.4886 338.534 41.6023C338.155 41.7083 337.716 41.803 337.216 41.8864C336.723 41.9621 336.242 42.0303 335.773 42.0909C335.311 42.1439 334.936 42.1894 334.648 42.2273C333.951 42.3182 333.299 42.4659 332.693 42.6705C332.095 42.8674 331.61 43.1667 331.239 43.5682C330.875 43.9621 330.693 44.5 330.693 45.1818C330.693 46.1136 331.038 46.8182 331.727 47.2955C332.424 47.7652 333.307 48 334.375 48ZM344.486 35.0455V32.5455H358.668V35.0455H352.94V50H350.259V35.0455H344.486ZM364.898 38.8636H369.898C371.943 38.8636 373.508 39.3826 374.591 40.4205C375.674 41.4583 376.216 42.7727 376.216 44.3636C376.216 45.4091 375.973 46.3598 375.489 47.2159C375.004 48.0644 374.292 48.7424 373.352 49.25C372.413 49.75 371.261 50 369.898 50H362.58V32.5455H365.261V47.5H369.898C370.958 47.5 371.83 47.2197 372.511 46.6591C373.193 46.0985 373.534 45.3788 373.534 44.5C373.534 43.5758 373.193 42.822 372.511 42.2386C371.83 41.6553 370.958 41.3636 369.898 41.3636H364.898V38.8636ZM387.389 50.3636C385.753 50.3636 384.344 49.9773 383.162 49.2045C381.98 48.4318 381.071 47.3674 380.435 46.0114C379.798 44.6553 379.48 43.1061 379.48 41.3636C379.48 39.5909 379.806 38.0265 380.457 36.6705C381.116 35.3068 382.033 34.2424 383.207 33.4773C384.389 32.7045 385.768 32.3182 387.344 32.3182C388.571 32.3182 389.677 32.5455 390.662 33C391.647 33.4545 392.454 34.0909 393.082 34.9091C393.711 35.7273 394.101 36.6818 394.253 37.7727H391.571C391.366 36.9773 390.912 36.2727 390.207 35.6591C389.51 35.0379 388.571 34.7273 387.389 34.7273C386.344 34.7273 385.427 35 384.639 35.5455C383.859 36.0833 383.249 36.8447 382.81 37.8295C382.378 38.8068 382.162 39.9545 382.162 41.2727C382.162 42.6212 382.374 43.7955 382.798 44.7955C383.23 45.7955 383.836 46.572 384.616 47.125C385.404 47.678 386.329 47.9545 387.389 47.9545C388.086 47.9545 388.719 47.8333 389.287 47.5909C389.855 47.3485 390.336 47 390.73 46.5455C391.124 46.0909 391.404 45.5455 391.571 44.9091H394.253C394.101 45.9394 393.726 46.8674 393.128 47.6932C392.537 48.5114 391.753 49.1629 390.776 49.6477C389.806 50.125 388.677 50.3636 387.389 50.3636ZM408.673 50V35H404.037C402.991 35 402.17 35.2424 401.571 35.7273C400.973 36.2121 400.673 36.8788 400.673 37.7273C400.673 38.5606 400.942 39.2159 401.48 39.6932C402.026 40.1705 402.772 40.4091 403.719 40.4091H409.355V42.9091H403.719C402.537 42.9091 401.518 42.7008 400.662 42.2841C399.806 41.8674 399.147 41.2727 398.685 40.5C398.223 39.7197 397.991 38.7955 397.991 37.7273C397.991 36.6515 398.234 35.7273 398.719 34.9545C399.204 34.1818 399.897 33.5871 400.798 33.1705C401.707 32.7538 402.787 32.5455 404.037 32.5455H411.219V50H408.673ZM397.037 50L401.991 41.3182H404.901L399.946 50H397.037Z" fill="black"/>
</svg>
